<svg width="49" height="61" viewBox="0 0 49 61" fill="none" xmlns="http://www.w3.org/2000/svg">
<path d="M16.5449 42.2095L15.3842 44.2718C14.989 44.974 14.5855 45.6316 14.1713 46.2544L14.1706 46.2555C13.6533 47.0303 12.9747 47.8294 12.3085 48.4423C11.9757 48.7485 11.6311 49.022 11.2982 49.2233C10.9849 49.4127 10.597 49.5909 10.1985 49.5909C10.1129 49.5909 9.96543 49.5839 9.79412 49.5125C9.63066 49.4444 9.49379 49.3383 9.37527 49.2142L9.37494 49.2139C9.28756 49.1223 9.19415 49.0007 9.13597 48.8394C9.07683 48.6755 9.07602 48.5305 9.08092 48.438M16.5449 42.2095L9.77653 48.4748M16.5449 42.2095L14.452 43.3141C13.1975 43.9762 12.0901 44.7195 11.1058 45.5631M16.5449 42.2095L11.5591 46.0921M9.08092 48.438L9.77653 48.4748M9.08092 48.438C9.08089 48.4385 9.08087 48.4389 9.08085 48.4394L9.77653 48.4748M9.08092 48.438C9.09471 48.1729 9.18659 47.9165 9.2943 47.6953C9.40598 47.4659 9.55654 47.2303 9.73099 46.9972C10.08 46.5311 10.5561 46.0335 11.1058 45.5631M9.77653 48.4748C9.804 47.9362 10.5205 46.9806 11.5591 46.0921M11.1058 45.5631L11.5591 46.0921M11.1058 45.5631C11.1059 45.563 11.1061 45.5629 11.1062 45.5628L11.5591 46.0921M5.74451 60.3028L0.696589 60.3033V6.3541V5.72862V0.696589H7.03032H31.7302L32.7846 1.74895L32.9885 1.95252H32.9912L48.3034 17.2414V60.3028H43.2554H5.74459H5.74451ZM44.4163 16.2492H46.0999L44.9085 15.0597L33.8437 4.01202L32.655 2.82508V4.50496V12.0852V15.5527V16.2492H33.3516H44.4163ZM46.7456 59.4546H47.4422V58.7581V55.2708V17.8759V17.5862L47.2367 17.3819L47.1544 17.3L46.9506 17.0974H46.6632H36.8393H31.7913V17.0969V17.0874V17.0779V17.0684V17.0588V17.0492V17.0395V17.0298V17.02V17.0101V17.0002V16.9903V16.9803V16.9703V16.9602V16.9501V16.9399V16.9296V16.9194V16.909V16.8987V16.8883V16.8778V16.8673V16.8567V16.8461V16.8355V16.8248V16.814V16.8033V16.7924V16.7815V16.7706V16.7597V16.7487V16.7376V16.7265V16.7154V16.7042V16.693V16.6817V16.6704V16.6591V16.6477V16.6362V16.6248V16.6133V16.6017V16.5901V16.5785V16.5668V16.5551V16.5434V16.5316V16.5197V16.5079V16.496V16.484V16.472V16.46V16.448V16.4359V16.4237V16.4116V16.3994V16.3871V16.3749V16.3625V16.3502V16.3378V16.3254V16.313V16.3005V16.2879V16.2754V16.2628V16.2502V16.2375V16.2248V16.2121V16.1994V16.1866V16.1738V16.1609V16.1481V16.1351V16.1222V16.1092V16.0962V16.0832V16.0701V16.057V16.0439V16.0308V16.0176V16.0044V15.9911V15.9779V15.9646V15.9513V15.9379V15.9245V15.9111V15.8977V15.8843V15.8708V15.8573V15.8437V15.8302V15.8166V15.803V15.7894V15.7757V15.762V15.7483V15.7346V15.7208V15.707V15.6932V15.6794V15.6656V15.6517V15.6378V15.6239V15.61V15.596V15.582V15.568V15.554V15.54V15.5259V15.5118V15.4977V15.4836V15.4695V15.4553V15.4412V15.427V15.4128V15.3985V15.3843V15.37V15.3557V15.3414V15.3271V15.3128V15.2984V15.2841V15.2697V15.2553V15.2409V15.2265V15.212V15.1976V15.1831V15.1686V15.1541V15.1396V15.1251V15.1106V15.096V15.0815V15.0669V15.0523V15.0377V15.0231V15.0085V14.9939V14.9792V14.9646V14.9499V14.9352V14.9206V14.9059V14.8912V14.8765V14.8617V14.847V14.8323V14.8175V14.8028V14.788V14.7733V14.7585V14.7437V14.7289V14.7141V14.6993V14.6845V14.6697V14.6549V14.6401V14.6252V14.6104V14.5956V14.5807V14.5659V14.5511V14.5362V14.5213V14.5065V14.4916V14.4768V14.4619V14.447V14.4322V14.4173V14.4024V14.3876V14.3727V14.3578V14.343V14.3281V14.3132V14.2983V14.2835V14.2686V14.2537V14.2389V14.224V14.2091V14.1943V14.1794V14.1646V14.1497V14.1349V14.12V14.1052V14.0903V14.0755V14.0607V14.0459V14.031V14.0162V14.0014V13.9866V13.9718V13.957V13.9422V13.9275V13.9127V13.8979V13.8832V13.8684V13.8537V13.8389V13.8242V13.8095V13.7948V13.7801V13.7654V13.7507V13.7361V13.7214V13.7068V13.6921V13.6775V13.6629V13.6483V13.6337V13.6191V13.6045V13.59V13.5754V13.5609V13.5464V13.5319V13.5174V13.5029V13.4884V13.474V13.4596V13.4451V13.4307V13.4164V13.402V13.3876V13.3733V13.359V13.3446V13.3304V13.3161V13.3018V13.2876V13.2734V13.2591V13.245V13.2308V13.2166V13.2025V13.1884V13.1743V13.1602V13.1462V13.1322V13.1181V13.1042V13.0902V13.0762V13.0623V13.0484V13.0345V13.0207V13.0068V12.993V12.9792V12.9654V12.9517V12.938V12.9243V12.9106V12.8969V12.8833V12.8697V12.8561V12.8426V12.8291V12.8156V12.8021V12.7886V12.7752V12.7618V12.7485V12.7351V12.7218V12.7085V12.6953V12.682V12.6688V12.6557V12.6425V12.6294V12.6163V12.6033V12.5903V12.5773V12.5643V12.5514V12.5385V12.5256V12.5128V12.5V12.4872V12.4744V12.4617V12.4491V12.4364V12.4238V12.4112V12.3987V12.3862V12.3737V12.3613V12.3488V12.3365V12.3241V12.3118V12.2996V12.2874V12.2752V12.263V12.2509V12.2388V12.2268V12.2147V12.2028V12.1908V12.179V12.1671V12.1553V12.1435V12.1318V12.1201V12.1084V12.0968V12.0852V12.0737V12.0622V12.0508V12.0394V12.0282V12.0169V12.0058V11.9946V11.9836V11.9726V11.9617V11.9508V11.94V11.9292V11.9185V11.9079V11.8973V11.8868V11.8764V11.866V11.8556V11.8453V11.8351V11.8249V11.8148V11.8048V11.7948V11.7848V11.7749V11.7651V11.7553V11.7456V11.736V11.7263V11.7168V11.7073V11.6979V11.6885V11.6792V11.6699V11.6607V11.6515V11.6424V11.6334V11.6244V11.6154V11.6065V11.5977V11.5889V11.5802V11.5715V11.5629V11.5543V11.5458V11.5373V11.5289V11.5206V11.5123V11.504V11.4958V11.4877V11.4796V11.4715V11.4635V11.4556V11.4477V11.4399V11.4321V11.4243V11.4166V11.409V11.4014V11.3939V11.3864V11.379V11.3716V11.3642V11.3569V11.3497V11.3425V11.3354V11.3283V11.3212V11.3142V11.3073V11.3004V11.2936V11.2867V11.28V11.2733V11.2666V11.26V11.2535V11.2469V11.2405V11.234V11.2277V11.2213V11.215V11.2088V11.2026V11.1965V11.1904V11.1843V11.1783V11.1723V11.1664V11.1605V11.1547V11.1489V11.1432V11.1375V11.1318V11.1262V11.1207V11.1151V11.1097V11.1042V11.0988V11.0935V11.0882V11.0829V11.0777V11.0725V11.0674V11.0623V11.0572V11.0522V11.0473V11.0423V11.0375V11.0326V11.0278V11.0231V11.0183V11.0137V11.009V11.0044V10.9999V10.9953V10.9909V10.9864V10.982V10.9777V10.9734V10.9691V10.9648V10.9606V10.9565V10.9524V10.9483V10.9442V10.9402V10.9362V10.9323V10.9284V10.9246V10.9207V10.9169V10.9132V10.9095V10.9058V10.9022V10.8986V10.895V10.8915V10.888V10.8846V10.8811V10.8778V10.8744V10.8711V10.8678V10.8646V10.8614V10.8582V10.8551V10.8519V10.8489V10.8458V10.8428V10.8399V10.8369V10.834V10.8312V10.8283V10.8255V10.8228V10.82V10.8173V10.8147V10.812V10.8094V10.8069V10.8043V10.802V10.8019V10.8018V10.8017V10.8016V10.8015V10.8013V10.8012V10.801V10.8009V10.8007V10.8005V10.8003V10.8001V10.7998V10.7996V10.7993V10.799V10.7987V10.7984V10.7981V10.7978V10.7974V10.7971V10.7969V10.7967V10.7963V10.7959V10.7955V10.7951V10.7947V10.7945V10.7943V10.7938V10.7934V10.7929V10.7924V10.7921V10.7919V10.7914V10.7909V10.7904V10.7899V10.7897V10.7894V10.7888V10.7883V10.7877V10.7874V10.7871V10.7865V10.7859V10.7854V10.7851V10.7847V10.7841V10.7835V10.7828V10.7822V10.7816V10.7809V10.7806V10.7803V10.7796V10.7789V10.7784V10.7783V10.7776V10.7769V10.7762V10.7762V10.7755V10.7748V10.7741V10.774V10.7733V10.7726V10.772V10.7718V10.7711V10.7704V10.7699V10.7696V10.7689V10.7681V10.7679V10.7673V10.7666V10.7658V10.765V10.7642V10.7638V10.7634V10.7626V10.7619V10.7611V10.7603V10.7599V10.7595V10.7587V10.758V10.7578V10.757V10.7562V10.7554V10.7546V10.7543V10.7538V10.7529V10.7525V10.7521V10.7513V10.7507V10.7505V10.7496V10.7489V10.7488V10.748V10.7472V10.7463V10.7455V10.7447V10.7438V10.743V10.7422V10.7413V10.7405V10.7397V10.7389V10.7388V10.738V10.7374V10.7372V10.7364V10.7358V10.7355V10.7347V10.7343V10.7339V10.7331V10.7328V10.7322V10.7314V10.7313V10.7306V10.7299V10.7298V10.729V10.7285V10.7282V10.7274V10.7271V10.7266V10.7258V10.7257V10.725V10.7244V10.7242V10.7234V10.7231V10.7226V10.7218V10.7211V10.7205V10.7203V10.7195V10.7193V10.7188V10.7181V10.7172V10.7169V10.7165V10.7157V10.715V10.7146V10.7143V10.7136V10.7135V10.7128V10.7124V10.7121V10.7114V10.7113V10.7107V10.7103V10.71V10.7092V10.7086V10.7083V10.7079V10.7073V10.7066V10.7063V10.7059V10.7054V10.7053V10.7046V10.7045V10.704V10.7036V10.7034V10.7028V10.7022V10.7019V10.7015V10.7011V10.701V10.7003V10.6998V10.6996V10.6992V10.6988V10.6987V10.6981V10.6976V10.6974V10.697V10.6967V10.6965V10.696V10.6955V10.6954V10.695V10.6948V10.6945V10.6942V10.694V10.6936V10.6931V10.693V10.6927V10.6925V10.6922V10.692V10.6918V10.6915V10.6914V10.691V10.6906V10.6906V10.6903V10.6901V10.6899V10.6897V10.6895V10.6893V10.6892V10.6889V10.6886V10.6882V10.688V10.6879V10.6877V10.6876V10.6874V10.6873V10.6872V10.687V10.687V10.6868V10.6866V10.6863V10.6861V10.686V10.6858V10.6857V10.6855V10.6854V10.6854V10.6853V2.25372V1.96398L31.5858 1.75971L31.5733 1.7473L31.3695 1.54472H31.0822H5.74459H2.25439H1.55781V2.24131V58.7581V59.4546H2.25439H5.74459H46.7456ZM41.2898 39.9238L41.29 39.9258C41.2967 40.0169 41.2922 40.1889 41.2085 40.3755C41.1307 40.5493 40.9645 40.7819 40.5707 40.986C39.5767 41.4998 38.0086 41.6767 36.1225 41.404L36.1217 41.4039C33.9087 41.0869 31.6215 40.2128 29.4796 38.8587L29.2263 38.6986L28.9359 38.7724C28.2647 38.9429 27.6036 39.1203 26.9641 39.292L26.9121 39.3059L26.9088 39.3068C26.2945 39.475 25.6954 39.6349 25.1201 39.7798L25.1186 39.7801L24.3491 39.9757C24.3488 39.9758 24.3486 39.9758 24.3484 39.9759C22.1996 40.5156 19.942 41.0843 17.8149 41.8473L17.5445 41.9443L17.4211 42.2037C16.6041 43.9212 15.7764 45.4002 14.8943 46.7229C14.6813 47.0417 14.0092 48.0029 13.1055 48.8766C12.171 49.7802 11.1378 50.444 10.1985 50.444C9.65414 50.444 9.15468 50.2309 8.74301 49.7988L8.74258 49.7984C8.36248 49.4001 8.18611 48.924 8.21518 48.3965L8.21535 48.3932C8.24459 47.8128 8.52197 47.1902 8.97264 46.5647C9.41865 45.9458 9.99557 45.3778 10.5358 44.9167L10.5366 44.9161C12.19 43.5009 14.1842 42.339 16.642 41.3742L16.905 41.271L17.0218 41.0136C17.9082 39.0595 18.6943 37.0149 19.451 35.0466L19.5017 34.9146L19.502 34.9138C20.1218 33.2963 20.7587 31.6383 21.4441 30.0394L21.5686 29.7489L21.432 29.4638C19.5571 25.5539 19.3138 22.4446 20.4451 20.0997L20.4455 20.0989C21.1133 18.71 21.8044 18.2796 22.4066 18.2796C22.8572 18.2796 23.3006 18.5154 23.677 19.0731C24.0601 19.6408 24.3413 20.5076 24.405 21.6166C24.5651 24.4266 23.6824 26.9599 22.6506 29.4185L22.5232 29.722L22.6769 30.0132C23.1129 30.8393 23.614 31.6805 24.1696 32.5217C25.4508 34.462 27.1633 36.2066 29.1378 37.5993L29.393 37.7792L29.6971 37.7085C31.8083 37.2174 33.4232 37.0068 34.9044 37.0068C36.286 37.0068 37.4772 37.1983 38.5658 37.5805L38.5657 37.5806L38.5774 37.5845C38.5739 37.5834 38.5784 37.5851 38.59 37.5898C38.6903 37.6304 39.3263 37.8873 39.9707 38.3121C40.3274 38.5474 40.6599 38.8167 40.9038 39.1069C41.1479 39.3974 41.2718 39.6701 41.2898 39.9238ZM14.1701 43.5885C13.9676 43.9483 13.7632 44.2953 13.5564 44.6311C13.9457 44.3878 14.3523 44.1544 14.7771 43.9302L14.1701 43.5885ZM23.539 21.6661L23.539 21.6656C23.4837 20.7067 23.2179 19.9605 22.9591 19.5602L22.4725 18.8077L21.8633 19.4649C21.6856 19.6567 21.4703 19.9658 21.2285 20.4627L21.2272 20.4654C20.2457 22.505 20.6403 24.9418 21.346 26.9932L22.0037 28.9052L22.6632 26.9939C23.238 25.3278 23.646 23.5461 23.539 21.6661ZM26.9539 38.4101L28.2418 38.064L27.222 37.2047C25.7477 35.9624 24.4626 34.5304 23.4427 32.9858C23.2148 32.6397 22.997 32.2967 22.7868 31.9517L22.0638 30.7648L21.5456 32.0543C21.1436 33.0547 20.7553 34.0657 20.3764 35.0525L20.3133 35.2165L20.3133 35.2167C19.7735 36.623 19.2253 38.0507 18.6357 39.462L18.0664 40.8245L19.48 40.3973C20.9982 39.9384 22.5378 39.5502 24.0628 39.1657L24.1346 39.1476L24.1348 39.1475L24.9015 38.9545C24.9015 38.9545 24.9016 38.9545 24.9017 38.9545C25.4197 38.8257 25.9555 38.6809 26.4958 38.5348C26.558 38.518 26.6203 38.5012 26.6826 38.4844L26.6864 38.4833C26.7766 38.4584 26.8642 38.4342 26.9539 38.4101ZM39.5683 40.4663L40.9071 40.0758L39.7908 39.2399C39.3617 38.9187 38.7147 38.5413 38.2711 38.3858C36.6324 37.8076 34.7577 37.7133 32.4326 38.0508L30.0559 38.3958L32.2484 39.3761C33.5667 39.9655 34.9172 40.3702 36.251 40.5615L36.2512 40.5615C37.4792 40.7374 38.686 40.7235 39.5683 40.4663Z" fill="#8E8E8E" stroke="#8E8E8E" stroke-width="1.39318"/>
</svg>
